<svg version="1.1" id="Layer_1" xmlns="http://www.w3.org/2000/svg" xmlns:xlink="http://www.w3.org/1999/xlink" x="0px" y="0px"
	 width="100%" viewBox="0 0 1024 912" enable-background="new 0 0 1024 912" xml:space="preserve">
<path fill="#000000" opacity="1.000000" stroke="none" 
	d="
M578.792297,375.259277 
	C576.461670,373.623505 574.422668,372.185699 572.417480,370.702240 
	C566.438721,366.279175 560.882629,361.660156 555.857422,355.881989 
	C541.409241,339.268799 522.846252,332.872711 501.088013,338.439514 
	C478.944672,344.104858 466.252014,359.154388 461.766907,380.981262 
	C460.254547,388.341064 460.444611,396.281311 462.757751,403.733337 
	C463.918304,407.472260 464.266754,411.171295 464.203613,415.034698 
	C463.847015,436.840576 464.014526,458.665100 463.150452,480.449463 
	C462.425903,498.715454 461.889038,516.983398 461.363647,535.253418 
	C461.309113,537.150757 460.740601,538.813110 459.994110,540.507629 
	C441.303650,582.935181 465.032227,630.675537 512.269836,638.399414 
	C530.587891,641.394592 547.736572,636.889832 562.741333,626.049255 
	C576.600525,616.036316 592.097168,609.072205 606.882568,600.785217 
	C615.156067,596.148193 623.531860,591.693298 631.875610,587.182312 
	C634.030029,586.017456 636.237671,584.951294 638.226807,583.938599 
	C639.581665,585.055420 639.341858,586.114075 639.052979,587.017090 
	C633.742981,603.617371 630.251282,620.798706 622.518494,636.633179 
	C619.889038,642.017639 616.981750,644.593384 610.506714,644.551270 
	C564.342712,644.250610 518.175781,644.411438 472.009827,644.382690 
	C453.853638,644.371399 435.697174,644.170105 417.541718,644.252991 
	C414.207520,644.268188 412.395630,642.956421 410.845215,640.213440 
	C405.389679,630.561462 402.049255,620.049927 398.978455,609.549683 
	C390.956360,582.118896 384.852722,554.232056 379.342590,526.170105 
	C375.667633,507.454315 373.026245,488.577271 369.270874,469.891510 
	C368.385559,465.486420 369.082947,460.929138 367.819183,456.527588 
	C366.544891,452.089355 361.397522,449.629211 357.952057,452.478577 
	C354.281067,455.514374 350.841461,458.918579 348.002686,462.871582 
	C350.358124,465.723907 354.127045,464.923096 356.831177,467.069183 
	C348.193726,482.507935 335.337616,494.385651 325.121887,508.277313 
	C314.921326,522.148315 303.435120,535.066589 292.968018,548.750854 
	C282.572449,562.341614 270.172546,574.453003 261.941467,589.681641 
	C266.295258,587.517822 268.536743,583.491516 271.389099,580.009766 
	C277.109222,573.027283 283.205536,566.334351 288.624664,559.129333 
	C293.760284,552.301208 299.025909,545.560242 303.943329,538.543091 
	C307.893707,532.906067 313.350830,528.168518 317.621613,522.614319 
	C323.459991,515.021545 329.778961,507.829163 335.553406,500.170349 
	C343.598907,489.499359 352.442200,479.431122 360.894775,469.064697 
	C362.682709,466.871887 364.440704,466.146027 367.325989,469.050629 
	C344.849304,497.189514 322.341034,525.367859 299.439301,554.038818 
	C305.359650,555.248474 310.653595,554.465149 315.887634,554.737549 
	C317.959137,554.845337 320.584076,553.992310 321.672913,556.497437 
	C322.551117,558.517944 320.410614,559.808044 319.364594,561.135437 
	C309.815460,573.252991 300.150360,585.279175 290.494354,597.312195 
	C289.371155,598.711853 288.385406,600.353760 286.174469,600.279236 
	C273.219635,599.842346 260.148621,601.751953 247.317215,599.223145 
	C229.622650,595.735840 222.643021,575.000916 233.955338,560.938965 
	C246.344604,545.538208 258.418579,529.884338 270.736877,514.426025 
	C284.918579,496.629364 299.263367,478.962616 313.412231,461.140137 
	C315.397644,458.639191 317.262573,459.386536 319.841583,460.160522 
	C317.378540,465.753967 313.375732,470.009308 309.959656,474.576172 
	C296.309204,492.825226 282.362946,510.852905 268.683167,529.080383 
	C267.165405,531.102722 264.190430,533.249573 266.426971,536.503052 
	C269.131256,540.436890 272.147308,540.349976 275.218353,536.492737 
	C293.641541,513.353455 312.227814,490.341217 330.378601,466.990356 
	C333.864716,462.505524 337.828369,462.312317 342.417297,462.883026 
	C343.269409,460.150940 341.249573,459.231720 340.100800,458.049438 
	C334.991486,452.791199 329.849701,447.556824 324.528687,442.515320 
	C321.937683,440.060425 321.638550,438.296722 324.346588,435.578522 
	C331.246277,428.653168 331.125763,428.533112 324.185608,421.711945 
	C319.371582,416.980469 319.371582,416.980469 314.613495,421.698303 
	C309.176147,427.089569 309.184753,427.081085 303.817627,421.689331 
	C298.409271,416.256195 293.079651,410.738892 287.519806,405.464783 
	C284.843597,402.926178 284.930267,401.020966 287.392242,398.386444 
	C294.040924,391.271576 293.956696,391.192871 286.411285,384.507568 
	C281.576782,380.224152 281.519226,380.226898 276.814667,384.962280 
	C271.932892,389.876068 271.954102,389.854950 267.241486,385.118805 
	C261.599335,379.448578 256.040710,373.685303 250.187347,368.240295 
	C247.963104,366.171265 247.557388,364.817902 249.789886,362.616455 
	C258.070618,354.450836 266.277527,346.209930 274.473724,337.959106 
	C285.343994,327.016388 296.161835,316.021606 307.031372,305.078156 
	C329.175659,282.783295 351.413300,260.580170 373.408325,238.139130 
	C376.394226,235.092712 378.205750,235.682419 380.687866,238.137100 
	C388.823273,246.182388 397.000336,254.185516 405.158661,262.207611 
	C409.941803,266.910919 411.117523,266.786041 412.859070,260.527924 
	C416.488464,247.485901 429.471375,240.230423 440.325714,240.804626 
	C444.813904,241.042038 449.333099,241.075562 453.819977,240.845932 
	C458.204468,240.621521 459.899109,242.716415 459.855499,246.759003 
	C459.808746,251.088654 459.801270,255.421616 459.613373,259.746033 
	C459.440338,263.727783 460.481750,266.018311 465.182983,265.765472 
	C471.331604,265.434753 477.514801,265.573456 483.677063,265.737701 
	C487.282898,265.833832 488.848938,264.533051 488.699677,260.794952 
	C488.500397,255.803284 488.793671,250.792740 488.623596,245.798859 
	C488.510193,242.468948 489.649445,240.856369 493.146179,240.869614 
	C507.978882,240.925766 522.812012,240.904800 537.644836,240.854797 
	C541.023804,240.843399 542.440247,242.355453 542.368042,245.729599 
	C542.250366,251.226898 542.455811,256.731781 542.304993,262.227417 
	C542.218323,265.384277 543.268372,266.802338 546.602905,266.692505 
	C551.930298,266.516968 557.271973,266.522491 562.599487,266.698700 
	C565.982361,266.810577 566.955200,265.207764 566.908264,262.160156 
	C566.825989,256.828552 567.010986,251.492157 566.894897,246.161911 
	C566.813049,242.404404 568.236206,240.706680 572.181641,240.795288 
	C579.844055,240.967377 587.526611,240.539413 595.176941,240.886169 
	C606.662598,241.406769 614.174805,247.916702 619.045593,257.906128 
	C619.618958,259.082123 619.784729,260.481628 621.365356,261.394379 
	C624.999756,259.857452 627.293030,256.466583 630.101135,253.776840 
	C635.631958,248.479065 641.041016,243.045258 646.308655,237.485962 
	C648.379639,235.300293 649.708496,235.090454 651.945740,237.351898 
	C666.199951,251.760269 680.586304,266.037872 694.931824,280.355865 
	C713.999146,299.386505 733.080261,318.403320 752.132202,337.449249 
	C760.128235,345.442810 768.020508,353.540619 776.053650,361.496460 
	C778.736816,364.153870 779.122498,366.295990 775.872559,368.830505 
	C769.158997,374.066101 763.429321,380.371490 757.518127,386.453705 
	C754.998901,389.045837 753.033752,389.583618 750.673035,386.526245 
	C749.863281,385.477448 748.774231,384.648193 747.923035,383.626770 
	C745.563782,380.795502 743.190063,380.969757 740.744324,383.471741 
	C740.045898,384.186188 739.365234,384.917969 738.668030,385.633667 
	C732.292358,392.178619 731.379211,391.482086 738.604126,398.284668 
	C741.732727,401.230408 741.539978,403.664642 738.477234,406.097198 
	C731.793518,411.405731 726.182312,417.812592 720.205994,423.834045 
	C717.691040,426.367981 716.042969,426.256714 713.705200,423.778168 
	C706.401733,416.034882 707.153137,417.480133 700.711182,423.781555 
	C695.393677,428.983063 695.464600,429.055573 700.602905,434.393036 
	C705.299866,439.272064 705.207092,439.424469 700.052429,444.032379 
	C696.702576,447.026947 693.520020,450.227631 690.455811,453.516113 
	C688.393005,455.729889 686.711060,456.121796 684.106812,454.153198 
	C661.550842,437.102631 638.914795,420.157928 616.286865,403.202789 
	C603.906738,393.926361 591.496216,384.690491 578.792297,375.259277 
M348.998688,338.498932 
	C359.471344,328.008057 369.875580,317.447388 380.464325,307.075012 
	C383.135345,304.458588 383.682678,302.540710 380.754272,299.753937 
	C373.037170,292.410034 365.371429,285.001282 357.964233,277.348267 
	C355.254242,274.548340 353.643036,274.954834 351.147675,277.471161 
	C333.457550,295.310303 315.696686,313.080109 297.843536,330.756042 
	C294.692413,333.875885 295.009216,336.281555 298.010529,339.115723 
	C301.376312,342.294067 304.312561,345.962189 307.861053,348.904175 
	C313.318970,353.429260 317.259949,359.569641 323.890076,363.950043 
	C332.153961,355.556641 340.315765,347.266876 348.998688,338.498932 
M731.097412,333.154327 
	C720.788696,322.819885 710.492126,312.473297 700.167419,302.154877 
	C692.178101,294.170410 684.118286,286.256195 676.164856,278.236328 
	C673.550537,275.600159 671.480896,274.663208 668.356995,277.942719 
	C661.812561,284.813171 654.907410,291.345581 648.031250,297.891693 
	C645.272644,300.517853 645.173645,302.495209 648.043213,305.271027 
	C656.653564,313.600128 665.003784,322.197784 673.470886,330.675354 
	C682.752625,339.968628 692.067871,349.228607 701.331604,358.539734 
	C703.696899,360.917114 705.348389,361.342590 708.344543,358.674683 
	C714.010681,353.629211 718.907104,347.840424 724.227356,342.505280 
	C726.719971,340.005585 730.615784,337.959015 731.097412,333.154327 
M399.345551,459.030426 
	C401.543488,469.985687 407.714233,474.778656 419.454407,474.649536 
	C426.708862,474.569763 432.707428,470.580658 435.260345,463.841736 
	C438.005249,456.596222 437.259979,449.671967 431.955444,443.858093 
	C426.449951,437.824066 417.878754,436.373199 409.936035,439.568085 
	C403.043518,442.340576 399.343719,448.832458 399.345551,459.030426 
M604.748535,338.079651 
	C606.723694,331.356201 604.429504,325.155792 598.747620,321.860870 
	C593.942505,319.074402 586.732239,320.114868 582.653137,324.183350 
	C579.132324,327.694977 578.125000,336.050507 580.815491,340.484528 
	C583.570618,345.025208 587.787048,346.831970 592.994934,346.679016 
	C598.536011,346.516235 602.468323,344.095367 604.748535,338.079651 
z"/>
<path fill="#000000" opacity="1.000000" stroke="none" 
	d="
M616.924438,431.047668 
	C631.495544,441.852417 645.759644,452.470947 660.103821,462.980103 
	C662.261658,464.561035 662.954956,466.105530 662.453796,468.843872 
	C658.782471,488.904205 655.236694,508.988342 651.794189,529.089417 
	C650.475830,536.787476 648.745544,544.375916 646.775452,551.923645 
	C646.247681,553.945618 645.442566,555.463196 643.441956,556.538330 
	C627.336853,565.193054 611.298828,573.972351 595.219421,582.675110 
	C593.956055,583.358887 592.684875,584.328247 590.175476,583.554321 
	C593.763733,554.829224 586.459229,529.730713 561.155518,513.020142 
	C536.381897,496.659668 510.484497,497.699799 483.311798,512.330078 
	C485.093597,486.484344 484.115326,461.753876 485.387207,435.836517 
	C503.585693,445.322754 521.073181,446.858185 538.594604,438.355316 
	C556.095703,429.862274 565.449219,415.260406 568.282654,395.266083 
	C585.394592,406.863556 600.714355,419.269165 616.924438,431.047668 
z"/>
<path fill="#000000" opacity="1.000000" stroke="none" 
	d="
M464.414124,703.391846 
	C462.159210,711.611328 462.087952,719.737122 462.402557,727.851868 
	C462.558594,731.876099 461.305511,733.517212 457.062836,733.396362 
	C448.433075,733.150574 439.802032,733.387146 431.189911,732.347168 
	C419.507050,730.936462 408.992401,718.303284 408.723236,704.329407 
	C408.441040,689.678467 408.754791,675.016785 408.587402,660.362244 
	C408.543457,656.513245 410.110535,655.596069 413.640472,655.599854 
	C479.927216,655.671448 546.214050,655.674011 612.500854,655.599304 
	C616.161438,655.595215 617.441772,656.810303 617.403992,660.499695 
	C617.252380,675.321045 617.501465,690.147095 617.297791,704.967224 
	C617.092529,719.905029 604.350891,732.277710 589.668762,732.388306 
	C584.366455,732.428345 579.031128,731.751099 573.753296,733.040710 
	C570.582642,733.815491 569.504944,731.977661 569.680603,729.129211 
	C570.183044,720.984863 568.519409,713.035095 567.731201,705.027649 
	C559.877258,704.721924 552.145081,706.510437 544.447083,703.988525 
	C541.757996,703.107605 541.016907,705.850281 541.017700,708.231079 
	C541.019775,714.393311 540.876648,720.560120 541.074097,726.716125 
	C541.210632,730.971008 539.681702,732.518555 535.263000,732.440491 
	C521.110657,732.190369 506.947449,732.157959 492.796448,732.441467 
	C487.866272,732.540283 486.452820,730.811646 486.677094,726.098816 
	C487.038910,718.495361 486.958008,710.860901 485.564606,702.664734 
	C478.842499,702.462585 471.802063,701.720215 464.414124,703.391846 
z"/>
<path fill="#000000" opacity="1.000000" stroke="none" 
	d="
M676.749390,237.242737 
	C668.950562,229.491699 661.403809,221.983658 653.768005,214.567261 
	C651.882324,212.735748 652.002991,211.253647 653.798279,209.541824 
	C656.316467,207.140640 658.773071,204.674545 661.240479,202.220612 
	C663.117981,200.353409 664.436401,201.619690 665.891174,202.909042 
	C674.408875,210.457993 674.414124,210.437622 682.541504,202.072830 
	C684.281128,200.282333 686.102356,198.571426 687.866333,196.804230 
	C696.235168,188.420181 707.756775,188.411774 716.211670,196.828201 
	C724.237732,204.817673 732.273071,212.798676 740.214478,220.871780 
	C742.525696,223.221313 744.248169,224.285080 747.137573,221.285187 
	C748.801392,219.557816 750.858459,218.116776 752.515015,216.234589 
	C756.535095,211.666931 759.399780,211.763275 763.696045,216.111069 
	C773.046936,225.574219 782.492676,234.943787 791.839783,244.410721 
	C796.195984,248.822876 796.151062,250.411697 791.977722,254.815903 
	C783.347412,263.923737 783.339233,263.931915 792.126404,272.740570 
	C796.948792,277.574707 801.884460,282.298309 806.627991,287.207977 
	C816.305420,297.224640 816.886597,309.607941 805.609070,318.798615 
	C802.792297,321.094147 800.405212,323.912384 797.777161,326.445251 
	C794.832886,329.282806 794.541016,331.880188 797.775085,334.886993 
	C801.148560,338.023346 804.827087,340.925903 807.711365,345.408142 
	C803.983154,348.989288 800.767578,353.098267 795.528992,356.872559 
	C772.259583,333.342102 749.170837,309.916351 725.990234,286.581879 
	C711.221558,271.715088 696.314087,256.986115 681.476929,242.187210 
	C679.945618,240.659912 678.470032,239.076828 676.749390,237.242737 
M704.248596,217.053635 
	C713.360657,222.456985 720.271545,230.454041 727.858521,237.577576 
	C744.215088,252.934891 759.659973,269.251892 776.291748,284.330231 
	C783.331055,290.711975 789.048279,297.867737 791.626892,307.203583 
	C791.897400,308.182861 791.864685,309.641052 793.835693,309.613373 
	C795.252441,305.830688 797.071289,302.093079 796.391357,297.781281 
	C795.185364,290.133362 791.697876,283.768433 786.026123,278.427490 
	C776.233765,269.206299 766.012878,260.358093 756.693542,250.746109 
	C747.799316,241.572647 738.539429,232.794510 729.576965,223.707840 
	C724.857300,218.922745 719.638367,214.844498 713.671631,211.781616 
	C706.253784,207.973801 696.968384,207.928497 691.004883,211.662537 
	C695.302856,213.390015 699.441345,215.053391 704.248596,217.053635 
z"/>
<path fill="#000000" opacity="1.000000" stroke="none" 
	d="
M309.465118,197.439941 
	C318.279114,188.889450 330.940277,187.697723 340.063171,198.049072 
	C342.920654,201.291336 346.253845,204.109512 349.260773,207.226471 
	C351.623260,209.675430 353.836182,209.723999 355.971222,207.107285 
	C357.970642,204.656784 359.843994,202.103394 361.735504,199.643768 
	C367.180267,203.018204 370.115601,206.632370 373.192841,210.030487 
	C375.461792,212.536041 372.780273,213.945602 371.402771,215.332748 
	C357.313354,229.520737 343.163177,243.648361 329.022217,257.785126 
	C297.559052,289.239044 266.093231,320.690277 234.623749,352.137817 
	C230.069977,356.688416 229.785965,356.672089 225.199249,351.990784 
	C218.212616,344.860077 218.212646,344.860077 225.319962,337.734467 
	C232.424698,330.611450 232.384308,330.652466 225.155075,323.531158 
	C221.720764,320.148163 217.996933,316.983551 215.479477,312.788513 
	C210.668182,304.771057 212.066559,295.591095 219.300537,288.222778 
	C226.069946,281.327637 232.869156,274.455627 239.849442,267.776367 
	C243.079041,264.686035 243.113358,262.269409 239.394730,259.816589 
	C239.256073,259.725128 239.127213,259.617523 239.000153,259.509888 
	C229.822266,251.737091 229.647873,249.237106 237.887558,240.861221 
	C245.827209,232.790344 253.785889,224.737213 261.817139,216.757767 
	C267.143219,211.466080 268.926849,211.514587 274.170593,216.627548 
	C275.244293,217.674454 276.326569,218.712631 277.394867,219.765015 
	C282.387634,224.683395 282.482819,224.781601 287.224701,220.064880 
	C294.638733,212.690140 301.907227,205.169083 309.465118,197.439941 
M288.543762,230.043808 
	C282.903839,235.444931 277.255402,240.837173 271.625977,246.249237 
	C263.121613,254.425339 254.563889,262.547546 246.155319,270.821198 
	C239.676117,277.196503 232.241348,282.985199 230.089432,292.504974 
	C228.874115,297.881348 228.126053,303.386536 232.792801,309.166931 
	C236.261139,297.071625 243.247009,288.882111 251.692657,281.287994 
	C265.474854,268.895477 278.333191,255.482315 291.860931,242.797989 
	C304.359711,231.078461 315.094696,216.991928 332.374969,211.400208 
	C332.574280,211.335724 332.634949,210.842926 332.772095,210.522644 
	C331.544159,208.812851 329.606354,208.728226 327.843353,208.616608 
	C321.790466,208.233337 316.063995,209.178879 310.446014,211.868683 
	C301.777283,216.019165 295.626160,222.991974 288.543762,230.043808 
z"/>
<path fill="#000000" opacity="1.000000" stroke="none" 
	d="
M540.000122,169.665970 
	C565.985291,169.657745 591.471130,169.745026 616.954895,169.554703 
	C621.569702,169.520248 623.109436,170.759293 622.681091,175.540802 
	C622.148193,181.488815 622.009827,187.568787 622.601257,193.502045 
	C624.115662,208.694824 610.360229,219.374603 596.635742,219.299591 
	C545.333862,219.019226 494.029480,219.218414 442.726135,219.148178 
	C435.415680,219.138184 428.042786,219.961365 420.796631,218.637466 
	C407.653900,216.236282 399.951996,206.942307 399.745544,193.534546 
	C399.653229,187.539474 399.692078,181.541519 399.737335,175.545380 
	C399.782623,169.538849 400.144165,169.280273 407.103394,170.165359 
	C408.034821,181.094467 406.703339,192.337082 408.746979,203.464722 
	C412.410706,202.611572 411.605072,200.214432 411.635010,198.429718 
	C411.749603,191.602188 411.404755,184.753540 411.834564,177.950897 
	C412.021698,174.988800 409.132263,169.600937 415.687439,169.800659 
	C422.027313,169.993820 419.020050,175.245773 419.228424,178.198181 
	C419.696350,184.827789 419.306732,191.514206 419.407318,198.175369 
	C419.444214,200.618179 419.289001,203.762192 423.000336,203.467880 
	C426.602020,203.182251 425.880249,200.221558 425.842682,197.727081 
	C425.722443,189.735992 425.785828,181.741852 425.630707,173.751740 
	C425.572418,170.750198 426.773834,169.743774 429.741821,169.608185 
	C439.337921,169.169876 439.333923,169.065002 439.336792,178.801819 
	C439.338776,185.464600 439.389557,192.127945 439.314423,198.789871 
	C439.282166,201.647491 439.803070,203.592468 443.330109,203.682938 
	C446.819061,203.772415 449.394714,203.052017 449.458954,199.039215 
	C449.589508,190.879883 449.737701,182.715317 449.572449,174.559097 
	C449.487549,170.368073 450.972015,168.998032 455.171875,169.399551 
	C464.200592,170.262680 464.211823,170.100189 464.206940,179.452255 
	C464.203644,185.781845 464.350861,192.115356 464.169403,198.439606 
	C464.056335,202.380722 465.737762,203.681274 469.531494,203.712540 
	C473.464081,203.744949 474.866577,202.128906 474.809601,198.338470 
	C474.689453,190.345337 474.887726,182.347488 474.776703,174.354065 
	C474.730072,170.994553 475.901733,169.587616 479.419067,169.613556 
	C491.102295,169.699692 489.187561,168.882050 489.334656,178.894897 
	C489.427612,185.223206 489.455444,191.556107 489.318848,197.882751 
	C489.239471,201.558350 489.852203,203.810349 494.441101,203.776642 
	C498.796997,203.744629 499.821472,201.986176 499.719452,198.060196 
	C499.516144,190.236938 499.798462,182.401566 499.625244,174.576828 
	C499.544769,170.940933 500.815765,169.563828 504.522369,169.614044 
	C516.179749,169.771957 527.840576,169.668549 540.000122,169.665970 
z"/>
<path fill="#000000" opacity="1.000000" stroke="none" 
	d="
M625.998901,164.336548 
	C545.546204,164.332855 465.592957,164.259354 385.640259,164.431351 
	C377.510773,164.448837 376.179413,162.386337 378.775146,154.408340 
	C382.797791,142.044754 393.247559,135.449921 409.408020,135.161545 
	C420.231873,134.968369 431.062408,135.000336 441.887665,135.127045 
	C445.199829,135.165817 447.457214,134.429413 449.082947,131.188705 
	C452.400391,124.575798 458.705994,123.552567 465.264862,123.563232 
	C496.389252,123.613876 527.513611,123.779785 558.637817,123.757423 
	C565.466614,123.752525 572.407532,122.688797 577.706055,128.536865 
	C578.040344,128.905792 578.666382,129.166656 578.762817,129.571579 
	C580.468140,136.733917 586.133484,134.970734 591.004517,135.092880 
	C600.811707,135.338821 610.683533,134.203842 620.415222,135.980011 
	C630.151489,137.756973 638.432312,141.878555 642.642883,151.617447 
	C643.233826,152.984161 643.833313,154.397034 644.093201,155.848618 
	C645.386475,163.071442 644.298584,164.328598 636.992310,164.336975 
	C633.494385,164.340988 629.996460,164.336853 625.998901,164.336548 
z"/>
<path fill="#000000" opacity="1.000000" stroke="none" 
	d="
M331.308746,621.281006 
	C337.604187,612.992310 343.626953,604.935486 349.776306,596.976440 
	C358.808258,585.286438 367.926941,573.663452 377.023529,562.023621 
	C377.614044,561.267944 378.332123,560.612061 379.425903,559.445984 
	C381.219391,564.479431 382.565857,568.740295 379.143402,573.271179 
	C365.108582,591.851562 351.283173,610.590576 337.197601,629.132141 
	C329.075287,639.823914 315.467621,641.513062 304.437683,633.358337 
	C295.489197,626.742493 290.628693,612.834778 299.062775,601.480103 
	C308.776428,588.402771 318.865234,575.603577 328.828674,562.712585 
	C340.210144,547.986938 351.616821,533.280640 363.050598,518.595581 
	C365.561646,515.370605 368.232849,512.270386 371.111420,508.770966 
	C373.495453,511.803467 373.017151,514.169800 371.134766,516.648315 
	C351.220062,542.870056 331.359406,569.132935 311.400848,595.321106 
	C308.248169,599.457886 305.983734,603.609131 308.256622,610.317993 
	C330.125214,582.467407 351.434448,555.329102 372.838135,528.070557 
	C379.199463,536.108337 379.464478,552.580750 373.771271,560.040955 
	C363.621460,573.341125 353.367584,586.546021 343.648254,600.190247 
	C338.054474,608.042969 331.497955,615.320618 325.822723,623.215393 
	C325.128052,624.181763 324.279755,624.905212 325.009644,626.464111 
	C327.797394,625.589233 329.066498,623.076843 331.308746,621.281006 
z"/>
<path fill="#000000" opacity="1.000000" stroke="none" 
	d="
M753.082947,600.311035 
	C746.385254,601.419067 742.765808,598.436401 739.118896,593.513855 
	C730.820679,582.313110 721.680725,571.737061 712.933350,560.866577 
	C711.920776,559.608337 710.631104,558.441040 710.325745,556.094910 
	C717.128967,553.008667 724.603271,555.930237 731.907349,554.142700 
	C730.965149,550.530579 727.132324,548.969666 726.183838,545.320557 
	C728.503479,542.257568 730.518555,541.122375 733.766846,544.994263 
	C745.710632,559.230957 757.915466,573.248840 770.061096,587.315491 
	C771.025085,588.432007 772.139343,589.731506 773.444519,590.170044 
	C775.581970,590.888306 778.382019,591.687866 779.935425,589.593750 
	C781.554504,587.411072 778.871399,586.143188 777.662781,584.742798 
	C764.422180,569.401733 751.148682,554.088928 737.870422,538.780334 
	C736.481384,537.178955 735.387939,535.578003 736.859070,533.463013 
	C740.346802,528.448730 741.884338,522.673035 743.525757,514.987061 
	C760.340759,534.439087 776.322021,552.926575 793.300232,572.567444 
	C794.006958,566.904480 793.203003,563.277466 790.366699,559.942749 
	C777.033691,544.266541 763.755676,528.543579 750.473145,512.824585 
	C748.327820,510.285828 746.308228,507.640015 744.138855,505.122711 
	C742.429932,503.139587 742.516907,500.979034 743.137329,497.696289 
	C748.669373,503.858307 753.758667,509.426605 758.736877,515.092529 
	C770.238586,528.183105 781.727051,541.285767 793.137573,554.455750 
	C798.215698,560.316895 803.980957,565.809143 804.348877,574.397156 
	C804.934021,588.052551 793.528748,600.094482 779.547974,600.286621 
	C770.890076,600.405640 762.229248,600.310181 753.082947,600.311035 
z"/>
<path fill="#000000" opacity="1.000000" stroke="none" 
	d="
M686.459351,617.499268 
	C675.993164,603.514221 665.724182,589.829651 655.171997,575.767700 
	C663.151306,570.355957 671.471252,566.328552 679.573730,561.940063 
	C682.696106,560.248901 683.679932,563.277039 684.974548,564.902405 
	C696.056946,578.815491 707.042603,592.805786 718.030640,606.793884 
	C719.047424,608.088318 719.895691,609.507629 722.052856,609.962769 
	C723.025146,606.004395 723.273315,602.417969 720.693115,599.069763 
	C712.881714,588.933228 705.098022,578.775269 697.294556,568.632629 
	C695.370056,566.131287 693.376953,563.682190 691.479797,561.160645 
	C690.204956,559.466309 687.293030,557.794495 690.684631,555.582214 
	C693.166260,553.963501 695.672607,552.235168 698.389343,555.841614 
	C708.085205,568.713440 718.004517,581.416687 727.789856,594.221497 
	C730.807495,598.170288 734.263306,601.864380 736.164429,606.543701 
	C740.369934,616.895081 736.786194,626.852722 726.213440,634.578491 
	C718.474731,640.233337 706.756226,639.573425 698.841370,632.918762 
	C693.807007,628.685974 690.617432,622.922119 686.459351,617.499268 
z"/>
<path fill="#000000" opacity="1.000000" stroke="none" 
	d="
M688.086487,477.786194 
	C710.987976,469.900055 731.257629,483.487946 735.853699,502.959442 
	C741.182678,525.535889 721.440491,547.469360 698.767578,545.850647 
	C680.716003,544.561829 668.268433,529.028442 666.019836,515.853455 
	C663.484924,501.000946 672.233398,485.646179 688.086487,477.786194 
M711.861694,524.458923 
	C717.229614,520.422913 718.407654,514.870300 717.967529,508.526520 
	C717.446106,501.011749 712.036743,494.474945 705.100098,493.464325 
	C696.137573,492.158539 688.178528,496.296661 685.516479,503.646301 
	C682.796143,511.156830 684.565430,519.264648 689.897644,523.723328 
	C696.045471,528.864014 703.474731,529.227112 711.861694,524.458923 
z"/>
<path fill="#000000" opacity="1.000000" stroke="none" 
	d="
M768.780640,410.649506 
	C771.392578,424.841309 768.198730,437.479950 758.816650,447.583557 
	C743.532898,464.042664 722.807373,466.965637 703.827698,454.598663 
	C703.316101,454.265320 703.016602,453.606262 702.189453,452.553253 
	C721.935730,433.732513 741.603149,414.986969 761.385498,396.131927 
	C766.771545,399.766663 767.311035,405.205109 768.780640,410.649506 
z"/>
<path fill="#000000" opacity="1.000000" stroke="none" 
	d="
M515.398560,547.006226 
	C525.906311,544.081116 535.965759,547.692871 542.577637,556.500183 
	C547.838440,563.507751 548.263794,573.574341 543.632690,581.469788 
	C538.170593,590.781921 528.381958,596.054932 518.614746,594.147705 
	C502.657104,591.031860 491.868683,572.144653 501.468079,558.191467 
	C505.082062,552.938354 509.244537,549.290894 515.398560,547.006226 
z"/>
<path fill="#000000" opacity="1.000000" stroke="none" 
	d="
M483.144073,596.789368 
	C470.109497,575.878662 473.180267,555.979248 488.028442,538.195435 
	C490.542786,535.183960 492.693329,534.879639 494.960052,538.522705 
	C495.987885,540.174622 497.555573,541.490662 498.723511,542.787109 
	C498.720612,545.101807 496.936890,545.798401 495.920258,547.026123 
	C486.550171,558.341370 484.794830,571.279907 490.029083,584.455200 
	C495.359772,597.873291 505.799408,605.401978 520.805664,605.835999 
	C527.776550,606.037598 534.264038,605.095154 540.491089,601.652588 
	C547.903198,597.555054 548.978210,598.149841 552.906006,606.408691 
	C536.249207,623.889343 500.488281,623.378784 483.144073,596.789368 
z"/>
<path fill="#000000" opacity="1.000000" stroke="none" 
	d="
M648.843933,598.973877 
	C649.912231,596.486633 649.073059,593.246399 652.553284,592.742920 
	C656.141785,592.223755 658.036316,594.107300 660.181763,596.912537 
	C669.345886,608.895447 678.923523,620.561890 688.337341,632.354187 
	C689.355774,633.630066 690.289612,634.973450 691.930481,637.185974 
	C673.600891,637.185974 656.139099,637.185974 637.986267,637.185974 
	C641.708191,624.145264 645.241394,611.765747 648.843933,598.973877 
z"/>
<path fill="#000000" opacity="1.000000" stroke="none" 
	d="
M369.382385,596.406494 
	C371.409515,593.960205 373.103180,591.679504 375.089325,589.690918 
	C377.787537,586.989563 381.299072,587.362000 382.230865,590.534790 
	C386.341766,604.532532 390.258667,618.587280 394.222504,632.627991 
	C394.301453,632.907532 394.096375,633.267273 393.811005,634.534546 
	C376.417053,632.694458 358.778503,633.702087 339.812744,633.193970 
	C350.150635,620.347839 359.664948,608.525085 369.382385,596.406494 
z"/>
<path fill="#000000" opacity="1.000000" stroke="none" 
	d="
M496.572968,387.558899 
	C497.732697,379.078003 505.034058,372.166931 512.954529,371.666016 
	C522.152649,371.084351 530.585327,376.962524 532.960144,385.611237 
	C535.099548,393.402618 530.965027,402.257843 523.776733,406.405884 
	C517.143066,410.233826 510.831696,410.042908 504.596649,405.911865 
	C498.184814,401.663696 495.534119,395.608063 496.572968,387.558899 
z"/>
<path fill="#000000" opacity="1.000000" stroke="none" 
	d="
M547.638428,388.349579 
	C544.563721,369.759949 534.056213,359.625488 516.094604,358.322327 
	C510.664124,357.928345 511.333252,354.159790 511.417969,351.328339 
	C511.516144,348.046875 514.450745,349.081573 516.785950,349.233093 
	C532.187744,350.232544 543.562134,357.855011 551.210754,370.820862 
	C567.378113,398.227661 547.117920,429.384796 520.876099,433.459717 
	C517.047241,434.054291 516.701111,431.984344 516.156555,429.485260 
	C515.639709,427.113007 515.859131,425.195618 518.871094,424.693665 
	C537.947754,421.514740 548.927979,406.535431 547.638428,388.349579 
z"/>
</svg>